<?xml version="1.0" standalone="no"?><!DOCTYPE svg PUBLIC "-//W3C//DTD SVG 1.1//EN" "http://www.w3.org/Graphics/SVG/1.1/DTD/svg11.dtd"><svg t="1700465978010" class="icon" viewBox="0 0 1024 1024" version="1.1" xmlns="http://www.w3.org/2000/svg" p-id="1141" xmlns:xlink="http://www.w3.org/1999/xlink" width="200" height="200"><path d="M574.016 561.984l299.968-174.016V544h60.032v-192c0-24-12.032-41.984-30.016-54.016L574.016 112c-17.984-12.032-36.032-12.032-54.016 0l-336 192c-17.984 6.016-30.016 30.016-30.016 48v384c0 17.984 12.032 36.032 30.016 48l329.984 192a54.528 54.528 0 0 0 60.032 0l30.016-17.984v-72l-30.08 17.984V561.984zM513.92 910.08L214.016 736V387.968l299.968 174.08v347.968zM544 508.032l-300.032-174.08L544 160l300.032 174.016L544 507.968z" fill="#e6e6e6" p-id="1142"></path><path d="M964.032 604.032h-240c-36.032 0-60.032 23.936-60.032 59.968v300.032c0 35.968 24 59.968 60.032 59.968h240c35.968 0 59.968-24 59.968-60.032v-299.968c0-36.032-24-60.032-60.032-60.032z m-210.048 299.968c-17.984 0-30.016-12.032-30.016-30.016 0-17.984 12.032-30.016 30.08-30.016 17.92 0 29.952 12.032 29.952 30.08 0 17.92-12.032 29.952-30.016 29.952z m0-120c-17.984 0-30.016-12.032-30.016-30.016 0-17.984 12.032-30.016 30.08-30.016 17.92 0 29.952 12.032 29.952 30.08 0 17.92-12.032 29.952-30.016 29.952z m209.984 120h-119.936v-60.032h119.936v60.032z m0-120h-119.936v-60.032h119.936v60.032z" fill="#e6e6e6" p-id="1143"></path></svg>