<?xml version="1.0" standalone="no"?><!DOCTYPE svg PUBLIC "-//W3C//DTD SVG 1.1//EN" "http://www.w3.org/Graphics/SVG/1.1/DTD/svg11.dtd"><svg t="1700465934922" class="icon" viewBox="0 0 1024 1024" version="1.1" xmlns="http://www.w3.org/2000/svg" p-id="1567" xmlns:xlink="http://www.w3.org/1999/xlink" width="200" height="200"><path d="M30.73024 348.65152h71.71072c5.632 0 10.24-4.608 10.24-10.25024V113.03936h225.37216c5.632 0 10.25024-4.61824 10.25024-10.25024V31.0784c0-5.632-4.61824-10.24-10.25024-10.24H107.56096c-48.14848 0-87.07072 38.93248-87.07072 87.07072v230.49216c0 5.64224 4.608 10.25024 10.24 10.25024z m655.63648-235.61216h225.37216v225.36192c0 5.64224 4.608 10.25024 10.24 10.25024h71.71072c5.632 0 10.24-4.608 10.24-10.25024V107.90912c0-48.14848-38.93248-87.07072-87.07072-87.07072H686.36672c-5.632 0-10.25024 4.608-10.25024 10.24v71.71072c0 5.632 4.61824 10.25024 10.25024 10.25024zM338.06336 912.08704h-225.3824v-225.3824c0-5.632-4.608-10.24-10.24-10.24H30.73024c-5.632 0-10.24 4.608-10.24 10.24V917.1968c0 48.14848 38.93248 87.07072 87.07072 87.07072h230.49216c5.632 0 10.25024-4.608 10.25024-10.24V922.3168c0.01024-5.62176-4.608-10.22976-10.24-10.22976z m655.62624-235.6224h-71.71072c-5.632 0-10.24 4.608-10.24 10.24V912.0768H686.36672c-5.632 0-10.25024 4.608-10.25024 10.24v71.71072c0 5.632 4.61824 10.24 10.25024 10.24h230.49216c48.14848 0 87.07072-38.93248 87.07072-87.07072V686.70464c0-5.632-4.608-10.24-10.24-10.24z m20.49024-210.01216H10.24c-5.632 0-10.24 4.61824-10.24 10.25024v71.71072c0 5.632 4.608 10.24 10.24 10.24h1003.93984c5.632 0 10.24-4.608 10.24-10.24v-71.71072c0-5.632-4.608-10.25024-10.24-10.25024z m0 0" fill="#e6e6e6" p-id="1568"></path></svg>